<?xml version="1.0" encoding="utf-8"?>
<!-- Generator: Adobe Illustrator 16.0.0, SVG Export Plug-In . SVG Version: 6.00 Build 0)  -->
<!DOCTYPE svg PUBLIC "-//W3C//DTD SVG 1.1//EN" "http://www.w3.org/Graphics/SVG/1.1/DTD/svg11.dtd">
<svg version="1.1" id="Layer_1" xmlns="http://www.w3.org/2000/svg" xmlns:xlink="http://www.w3.org/1999/xlink" x="0px" y="0px"
	 width="1494.03px" height="400px" viewBox="0 0 1494.03 400" enable-background="new 0 0 1494.03 400" xml:space="preserve">
<polygon fill="none" stroke="#F5F0F3" stroke-width="60" stroke-miterlimit="10" points="120.737,337.286 41.475,200
	120.737,62.714 279.264,62.714 358.524,200 279.264,337.286 "/>
<g>
	<path fill="#F5F0F3" d="M441.734,41.452c4.983-0.809,9.904-1.213,14.756-1.213s9.836,0.404,14.959,1.213v57.005h48.717V41.452
		c4.984-0.809,9.905-1.213,14.757-1.213s9.836,0.404,14.959,1.213v145.343c-5.123,0.809-10.041,1.213-14.757,1.213
		c-4.987,0-9.975-0.404-14.959-1.213v-62.867h-48.717v62.867c-5.123,0.809-10.041,1.213-14.757,1.213
		c-4.987,0-9.975-0.404-14.958-1.213V41.452z"/>
	<path fill="#F5F0F3" d="M578.181,41.452h82.476c0.809,4.043,1.213,8.155,1.213,12.331c0,4.447-0.404,8.692-1.213,12.735h-52.963
		v31.535h42.047c0.809,4.315,1.213,8.49,1.213,12.533c0,4.314-0.404,8.56-1.213,12.735h-42.047v38.408h54.378
		c0.809,4.043,1.213,8.155,1.213,12.331c0,4.447-0.404,8.692-1.213,12.735h-83.891V41.452z"/>
	<path fill="#F5F0F3" d="M706.945,110.788l-26.077-69.134c2.694-0.404,5.356-0.673,7.984-0.809c2.628-0.133,5.222-0.202,7.783-0.202
		c4.852,0,9.905,0.404,15.16,1.213l23.045,69.538l-28.906,75.198c-3.371,0.537-6.235,0.91-8.592,1.112
		c-2.359,0.202-4.684,0.303-6.974,0.303c-2.426,0-4.82-0.101-7.177-0.303c-2.359-0.202-5.088-0.505-8.187-0.91L706.945,110.788z
		 M736.256,111.395l22.641-69.538c5.256-0.809,10.31-1.213,15.161-1.213c2.558,0,5.154,0.069,7.782,0.202
		c2.628,0.136,5.287,0.404,7.984,0.809l-25.672,69.134l31.534,76.007c-3.102,0.404-5.83,0.708-8.187,0.91
		c-2.359,0.202-4.751,0.303-7.176,0.303c-2.294,0-4.618-0.101-6.975-0.303c-2.359-0.202-5.224-0.575-8.591-1.112L736.256,111.395z"
		/>
	<path fill="#F5F0F3" d="M468.215,306.003c-4.583-1.75-8.692-3.671-12.331-5.762c-3.639-2.088-6.74-4.58-9.299-7.479
		c-2.562-2.896-4.548-6.368-5.963-10.411c-1.415-4.042-2.122-8.894-2.122-14.554c0-6.873,1.178-12.938,3.537-18.193
		c2.356-5.255,5.691-9.668,10.006-13.24c4.312-3.569,9.501-6.267,15.565-8.086s12.868-2.729,20.417-2.729
		c6.873,0,13.307,0.606,19.305,1.819c5.995,1.213,12.296,2.966,18.9,5.256c-0.809,7.817-2.966,15.499-6.469,23.044
		c-2.021-0.809-4.077-1.617-6.165-2.426c-2.091-0.809-4.314-1.481-6.671-2.021c-2.359-0.537-5.021-0.976-7.984-1.314
		c-2.966-0.334-6.336-0.505-10.107-0.505c-2.293,0-4.618,0.202-6.974,0.606c-2.36,0.404-4.482,1.147-6.368,2.224
		c-1.889,1.081-3.437,2.663-4.649,4.75c-1.213,2.091-1.819,4.82-1.819,8.187c0,2.697,0.471,4.953,1.415,6.772
		c0.941,1.819,2.224,3.37,3.841,4.649c1.617,1.282,3.437,2.359,5.458,3.234c2.021,0.878,4.043,1.718,6.064,2.526L497.931,287
		c5.12,2.021,9.77,4.113,13.948,6.267c4.175,2.157,7.713,4.82,10.612,7.985c2.896,3.168,5.154,7.009,6.771,11.522
		c1.617,4.517,2.426,10.076,2.426,16.678c0,6.873-1.247,13.139-3.739,18.799c-2.495,5.66-6.1,10.512-10.814,14.555
		c-4.72,4.043-10.547,7.211-17.486,9.501c-6.942,2.29-14.927,3.437-23.954,3.437c-4.447,0-8.424-0.136-11.927-0.404
		c-3.506-0.271-6.841-0.708-10.006-1.314c-3.168-0.606-6.302-1.38-9.399-2.324c-3.103-0.941-6.337-2.088-9.703-3.437
		c0.404-3.907,1.143-7.984,2.224-12.229c1.077-4.245,2.355-8.521,3.841-12.837c5.659,2.294,10.981,4.012,15.969,5.155
		c4.984,1.146,10.31,1.718,15.97,1.718c8.49,0,15.161-1.582,20.013-4.75c4.852-3.165,7.277-7.985,7.277-14.453
		c0-3.234-0.575-5.929-1.719-8.086c-1.146-2.154-2.628-3.974-4.447-5.458c-1.819-1.481-3.875-2.729-6.165-3.74
		c-2.293-1.011-4.649-1.986-7.075-2.931L468.215,306.003z"/>
	<path fill="#F5F0F3" d="M612.141,375.743c-10.916,0-20.351-1.889-28.301-5.66c-7.953-3.771-14.487-8.995-19.607-15.666
		c-5.123-6.671-8.93-14.555-11.422-23.651c-2.495-9.097-3.739-19.033-3.739-29.817c0-10.78,1.244-20.786,3.739-30.019
		c2.492-9.229,6.299-17.214,11.422-23.955c5.12-6.737,11.654-11.993,19.607-15.767c7.95-3.771,17.385-5.66,28.301-5.66
		s20.348,1.889,28.301,5.66c7.949,3.774,14.484,9.03,19.607,15.767c5.12,6.741,8.927,14.725,11.422,23.955
		c2.492,9.232,3.739,19.238,3.739,30.019c0,10.784-1.247,20.72-3.739,29.817c-2.495,9.097-6.302,16.98-11.422,23.651
		c-5.123,6.671-11.658,11.895-19.607,15.666C632.488,373.854,623.057,375.743,612.141,375.743z M612.141,351.081
		c20.888,0,31.333-16.708,31.333-50.132c0-16.708-2.527-29.242-7.581-37.599c-5.054-8.354-12.905-12.533-23.55-12.533
		c-21.159,0-31.737,16.712-31.737,50.132C580.605,334.373,591.117,351.081,612.141,351.081z"/>
	<path fill="#F5F0F3" d="M699.67,227.974c4.984-0.809,9.77-1.213,14.353-1.213c4.715,0,9.633,0.404,14.756,1.213v119.873h50.335
		c0.404,2.293,0.673,4.482,0.809,6.57c0.133,2.091,0.202,4.077,0.202,5.963c0,2.157-0.069,4.28-0.202,6.368
		c-0.136,2.091-0.404,4.279-0.809,6.569H699.67V227.974z"/>
	<path fill="#F5F0F3" d="M793.466,227.974c2.559-0.404,5.054-0.673,7.479-0.809c2.426-0.133,4.918-0.202,7.479-0.202
		c2.29,0,4.649,0.069,7.075,0.202c2.425,0.136,4.917,0.404,7.479,0.809v75.401c0,8.222,0.304,15.262,0.91,21.124
		s1.819,10.714,3.639,14.555s4.378,6.671,7.682,8.49c3.301,1.819,7.58,2.729,12.836,2.729s9.501-0.909,12.735-2.729
		s5.761-4.649,7.58-8.49s3.032-8.692,3.639-14.555s0.91-12.902,0.91-21.124v-75.401c2.694-0.404,5.256-0.673,7.682-0.809
		c2.426-0.133,4.781-0.202,7.075-0.202c2.425,0,4.883,0.069,7.378,0.202c2.492,0.136,5.019,0.404,7.58,0.809v81.667
		c0,9.839-0.809,18.834-2.426,26.986c-1.617,8.155-4.517,15.129-8.692,20.922c-4.179,5.796-9.772,10.278-16.777,13.443
		c-7.009,3.164-15.903,4.75-26.684,4.75c-10.783,0-19.678-1.586-26.684-4.75c-7.009-3.165-12.603-7.647-16.777-13.443
		c-4.179-5.793-7.075-12.767-8.692-20.922c-1.617-8.152-2.426-17.147-2.426-26.986V227.974z"/>
	<path fill="#F5F0F3" d="M958.212,253.04h-36.184c-0.809-4.043-1.213-8.288-1.213-12.735c0-4.176,0.404-8.288,1.213-12.331h102.084
		c0.809,4.043,1.212,8.155,1.212,12.331c0,4.447-0.403,8.692-1.212,12.735h-36.185v120.277c-2.426,0.269-4.852,0.505-7.277,0.707
		s-4.785,0.304-7.075,0.304c-2.293,0-4.75-0.069-7.378-0.202c-2.628-0.136-5.291-0.404-7.985-0.809V253.04z"/>
	<path fill="#F5F0F3" d="M1044.525,227.974c4.984-0.809,9.905-1.213,14.757-1.213s9.835,0.404,14.958,1.213v145.343
		c-5.123,0.809-10.041,1.213-14.756,1.213c-4.987,0-9.975-0.404-14.959-1.213V227.974z"/>
	<path fill="#F5F0F3" d="M1161.768,375.743c-10.916,0-20.351-1.889-28.301-5.66c-7.953-3.771-14.487-8.995-19.607-15.666
		c-5.123-6.671-8.93-14.555-11.422-23.651c-2.495-9.097-3.739-19.033-3.739-29.817c0-10.78,1.244-20.786,3.739-30.019
		c2.492-9.229,6.299-17.214,11.422-23.955c5.12-6.737,11.654-11.993,19.607-15.767c7.95-3.771,17.385-5.66,28.301-5.66
		s20.348,1.889,28.301,5.66c7.949,3.774,14.484,9.03,19.607,15.767c5.12,6.741,8.927,14.725,11.422,23.955
		c2.492,9.232,3.739,19.238,3.739,30.019c0,10.784-1.247,20.72-3.739,29.817c-2.495,9.097-6.302,16.98-11.422,23.651
		c-5.123,6.671-11.658,11.895-19.607,15.666C1182.115,373.854,1172.684,375.743,1161.768,375.743z M1161.768,351.081
		c20.888,0,31.333-16.708,31.333-50.132c0-16.708-2.527-29.242-7.581-37.599c-5.054-8.354-12.905-12.533-23.55-12.533
		c-21.159,0-31.737,16.712-31.737,50.132C1130.232,334.373,1140.744,351.081,1161.768,351.081z"/>
	<path fill="#F5F0F3" d="M1249.297,227.974c4.176-0.809,8.152-1.213,11.927-1.213c4.043,0,8.218,0.404,12.532,1.213l56.197,92.583
		v-92.583c4.852-0.809,9.501-1.213,13.948-1.213c4.175,0,8.218,0.404,12.128,1.213v145.343c-4.314,0.809-8.222,1.213-11.724,1.213
		c-3.775,0-7.884-0.404-12.331-1.213l-56.602-92.381v92.381c-4.314,0.809-8.691,1.213-13.139,1.213s-8.762-0.404-12.938-1.213
		V227.974z"/>
	<path fill="#F5F0F3" d="M1410.811,306.003c-4.583-1.75-8.691-3.671-12.33-5.762c-3.639-2.088-6.74-4.58-9.299-7.479
		c-2.562-2.896-4.549-6.368-5.964-10.411c-1.415-4.042-2.122-8.894-2.122-14.554c0-6.873,1.178-12.938,3.537-18.193
		c2.356-5.255,5.692-9.668,10.007-13.24c4.312-3.569,9.501-6.267,15.564-8.086c6.064-1.819,12.868-2.729,20.417-2.729
		c6.873,0,13.307,0.606,19.305,1.819c5.995,1.213,12.297,2.966,18.901,5.256c-0.809,7.817-2.966,15.499-6.469,23.044
		c-2.021-0.809-4.078-1.617-6.166-2.426c-2.091-0.809-4.314-1.481-6.671-2.021c-2.359-0.537-5.021-0.976-7.984-1.314
		c-2.966-0.334-6.336-0.505-10.107-0.505c-2.293,0-4.617,0.202-6.974,0.606c-2.359,0.404-4.482,1.147-6.368,2.224
		c-1.889,1.081-3.437,2.663-4.649,4.75c-1.213,2.091-1.819,4.82-1.819,8.187c0,2.697,0.471,4.953,1.415,6.772
		c0.941,1.819,2.224,3.37,3.841,4.649c1.617,1.282,3.437,2.359,5.458,3.234c2.021,0.878,4.043,1.718,6.064,2.526l12.129,4.649
		c5.12,2.021,9.77,4.113,13.948,6.267c4.176,2.157,7.713,4.82,10.612,7.985c2.896,3.168,5.155,7.009,6.772,11.522
		c1.617,4.517,2.426,10.076,2.426,16.678c0,6.873-1.248,13.139-3.74,18.799c-2.495,5.66-6.099,10.512-10.814,14.555
		c-4.719,4.043-10.547,7.211-17.485,9.501c-6.943,2.29-14.928,3.437-23.955,3.437c-4.447,0-8.424-0.136-11.926-0.404
		c-3.507-0.271-6.842-0.708-10.007-1.314c-3.168-0.606-6.301-1.38-9.399-2.324c-3.102-0.941-6.336-2.088-9.703-3.437
		c0.404-3.907,1.144-7.984,2.224-12.229c1.077-4.245,2.356-8.521,3.841-12.837c5.66,2.294,10.982,4.012,15.97,5.155
		c4.983,1.146,10.309,1.718,15.969,1.718c8.49,0,15.161-1.582,20.013-4.75c4.852-3.165,7.277-7.985,7.277-14.453
		c0-3.234-0.575-5.929-1.718-8.086c-1.147-2.154-2.628-3.974-4.447-5.458c-1.819-1.481-3.876-2.729-6.166-3.74
		c-2.293-1.011-4.649-1.986-7.075-2.931L1410.811,306.003z"/>
</g>
<g>
</g>
<g>
</g>
<g>
</g>
<g>
</g>
<g>
</g>
<g>
</g>
</svg>
